<?xml version="1.0" standalone="no"?>
<!DOCTYPE svg PUBLIC "-//W3C//DTD SVG 20010904//EN"
 "http://www.w3.org/TR/2001/REC-SVG-20010904/DTD/svg10.dtd">
<svg version="1.0" xmlns="http://www.w3.org/2000/svg"
 width="1020.000000pt" height="1020.000000pt" viewBox="0 0 1020.000000 1020.000000"
 preserveAspectRatio="xMidYMid meet">

<g transform="translate(0.000000,1020.000000) scale(0.100000,-0.100000)"
fill="#000000" stroke="none">
<path d="M4775 10121 c-60 -4 -150 -13 -200 -20 -49 -7 -142 -19 -205 -28 -63
-8 -140 -21 -170 -29 -30 -7 -77 -16 -105 -20 -27 -3 -58 -11 -68 -16 -10 -5
-46 -14 -80 -19 -34 -5 -80 -16 -102 -23 -22 -8 -69 -22 -105 -31 -36 -9 -81
-23 -100 -30 -19 -6 -66 -22 -105 -34 -38 -12 -86 -29 -105 -36 -19 -7 -78
-30 -130 -50 -52 -20 -108 -42 -125 -50 -16 -8 -52 -23 -80 -35 -27 -11 -57
-25 -65 -30 -8 -6 -22 -13 -30 -16 -45 -16 -293 -146 -405 -212 -374 -220
-683 -461 -1005 -782 -159 -159 -225 -230 -345 -375 -94 -112 -311 -411 -322
-443 -4 -10 -19 -33 -34 -52 -15 -20 -38 -56 -51 -80 -13 -25 -36 -63 -49 -85
-29 -46 -28 -43 -131 -247 -42 -84 -91 -184 -108 -223 -18 -38 -40 -88 -51
-111 -10 -23 -19 -48 -19 -56 0 -8 -7 -23 -15 -34 -8 -10 -15 -26 -15 -34 0
-8 -7 -28 -15 -43 -8 -15 -19 -42 -24 -60 -6 -18 -20 -59 -31 -92 -12 -33 -27
-80 -35 -105 -7 -25 -24 -83 -37 -130 -84 -283 -139 -576 -179 -940 -17 -159
-23 -604 -10 -760 27 -334 31 -367 81 -655 20 -117 83 -381 114 -476 13 -41
27 -90 31 -109 4 -19 11 -39 15 -45 4 -5 12 -28 18 -50 14 -54 32 -104 48
-137 8 -14 14 -33 14 -42 0 -9 9 -33 20 -53 11 -21 20 -45 20 -53 0 -9 7 -25
15 -36 8 -10 15 -24 15 -31 0 -7 15 -45 34 -85 18 -40 48 -104 65 -143 17 -38
36 -77 41 -85 5 -8 28 -53 52 -100 24 -47 55 -103 70 -126 15 -22 32 -52 38
-65 11 -27 15 -33 83 -137 26 -41 47 -76 47 -78 0 -2 23 -35 50 -74 27 -39 50
-72 50 -75 0 -3 5 -11 10 -18 6 -7 52 -66 103 -133 51 -67 99 -128 107 -137 8
-8 26 -30 40 -49 43 -57 210 -239 311 -339 236 -233 506 -455 734 -603 50 -32
108 -71 130 -86 59 -40 240 -142 379 -214 539 -281 1179 -469 1771 -521 99 -9
190 -20 203 -25 29 -13 597 -13 620 -1 9 5 100 16 202 26 182 16 484 66 650
106 675 163 1351 486 1883 901 280 219 594 519 766 732 31 39 68 83 84 100 15
17 27 33 27 37 0 3 12 19 26 35 39 45 214 289 214 300 0 3 13 23 28 43 47 60
203 330 269 466 19 38 38 77 43 85 15 25 57 116 100 215 12 28 27 64 35 80 7
17 21 53 30 80 10 28 23 64 31 80 7 17 17 46 23 65 5 19 21 67 34 105 14 39
34 104 46 145 12 41 28 98 36 125 8 28 19 68 24 90 59 251 86 384 101 503 6
39 14 102 19 140 28 202 43 485 38 707 -6 246 -20 417 -61 702 -36 253 -157
739 -225 898 -5 11 -18 45 -29 75 -30 82 -73 191 -82 209 -4 9 -14 33 -23 54
-35 79 -92 202 -107 227 -4 8 -28 53 -51 100 -51 102 -75 146 -97 181 -15 24
-59 95 -95 154 -7 11 -27 41 -44 68 -18 26 -33 49 -33 52 0 7 -118 175 -152
216 -7 9 -17 23 -23 32 -5 8 -46 60 -90 114 -296 364 -631 680 -1007 949 -98
70 -148 104 -153 104 -3 0 -27 15 -53 33 -52 35 -56 38 -152 95 -195 118 -491
263 -710 347 -52 20 -109 42 -125 49 -17 7 -46 17 -65 21 -19 4 -40 11 -45 16
-6 4 -29 12 -50 18 -22 5 -53 14 -70 20 -16 6 -61 19 -100 30 -38 11 -94 27
-124 35 -29 9 -64 16 -77 16 -13 0 -41 6 -61 14 -62 23 -246 57 -413 76 -52 6
-138 18 -190 27 -107 17 -682 26 -875 14z m2121 -2633 c13 -19 0 -3201 -13
-3258 -50 -217 -173 -401 -348 -518 -52 -34 -90 -54 -200 -102 -23 -11 -97
-25 -202 -41 -73 -11 -112 -7 -263 24 -109 23 -253 98 -348 180 -53 45 -160
178 -181 222 -35 78 -42 94 -60 150 -33 101 -45 222 -32 323 13 91 44 203 67
237 8 11 14 25 14 32 0 25 86 139 160 213 68 67 201 160 230 160 6 0 21 6 33
14 96 62 382 81 532 36 44 -14 104 -37 134 -52 30 -15 58 -28 63 -28 12 0 10
1327 -2 1335 -6 3 -40 -3 -78 -15 -37 -11 -89 -27 -117 -35 -27 -7 -84 -23
-125 -35 -41 -11 -100 -28 -130 -36 -30 -9 -68 -20 -85 -26 -16 -5 -52 -14
-80 -20 -27 -5 -54 -13 -60 -18 -5 -5 -32 -13 -60 -18 -27 -6 -63 -15 -80 -20
-30 -10 -80 -25 -215 -62 -41 -11 -97 -27 -125 -35 -27 -8 -84 -24 -125 -35
-41 -11 -88 -25 -105 -31 -16 -6 -48 -15 -70 -19 -22 -5 -62 -16 -90 -25 -52
-17 -124 -38 -210 -60 -47 -13 -122 -33 -240 -67 l-50 -14 -6 -1139 c-5 -1123
-6 -1141 -27 -1210 -48 -161 -98 -251 -199 -356 -81 -85 -141 -129 -249 -182
-97 -49 -150 -57 -354 -57 -232 0 -271 8 -420 91 -221 124 -365 343 -410 624
-12 76 0 199 26 264 8 18 14 40 14 48 0 22 70 163 108 217 93 133 232 240 387
300 111 42 160 50 295 50 146 0 220 -15 332 -68 30 -14 61 -26 69 -26 12 0 14
166 11 1130 -1 773 1 1137 8 1150 6 11 23 22 38 26 15 3 45 12 67 19 42 13
153 46 245 72 30 8 75 21 100 29 25 7 63 16 84 20 22 4 51 13 65 20 14 8 36
14 47 14 12 0 38 7 57 15 20 8 46 15 58 15 11 0 35 6 52 14 18 8 52 19 77 24
25 6 59 15 75 20 33 11 83 26 340 97 47 13 133 37 255 72 30 9 73 21 95 29 22
7 59 15 82 19 24 4 45 10 48 15 3 5 24 11 48 15 23 4 58 13 77 20 19 7 71 22
115 34 107 29 180 50 235 66 25 7 62 17 83 20 20 4 39 11 42 15 3 5 24 11 48
15 23 3 58 12 77 19 19 8 55 19 80 25 101 27 147 41 185 55 49 19 90 20 101 4z"/>
</g>
</svg>
