<?xml version="1.0" encoding="utf-8"?>
<svg viewBox="181.248 320.679 59.019 59.019" xmlns="http://www.w3.org/2000/svg">
  <path class="st0" d="M231,462c9.9,0,19.5,2.5,28.9,7.6c9.4,5.1,16.7,12.3,22.1,21.8c5.3,9.4,8,19.3,8,29.6 c0,10.2-2.6,19.9-7.8,29.3c-5.2,9.3-12.4,16.6-21.8,21.8c-9.4,5.2-19.2,7.8-29.4,7.8c-10.1,0-19.9-2.6-29.3-7.8 c-9.4-5.2-16.6-12.4-21.8-21.8c-5.2-9.3-7.8-19.1-7.8-29.3c0-10.3,2.6-20.2,7.9-29.6c5.3-9.4,12.6-16.7,22-21.8 C211.5,464.6,221.1,462,231,462z M231,466.1c-9.2,0-18.2,2.4-26.9,7.1c-8.7,4.7-15.5,11.5-20.5,20.3c-4.9,8.8-7.4,18-7.4,27.6 c0,9.5,2.4,18.5,7.2,27.2c4.8,8.7,11.6,15.5,20.3,20.3c8.7,4.8,17.8,7.2,27.2,7.2c9.5,0,18.7-2.4,27.4-7.2 c8.7-4.8,15.5-11.6,20.3-20.3c4.8-8.7,7.2-17.8,7.2-27.2c0-9.6-2.5-18.8-7.5-27.6c-5-8.8-11.8-15.6-20.6-20.3 C249.2,468.4,240.3,466.1,231,466.1z M196.6,537.3c-0.4,0-0.7,0.1-0.9,0.4c-0.3,0.3-0.4,0.6-0.4,0.9v6.8c0,0.4,0.1,0.7,0.4,1 c0.3,0.3,0.6,0.4,0.9,0.4h10.6c0.4,0,0.7-0.1,1-0.4c0.3-0.3,0.4-0.6,0.4-1v-6.8c0-0.4-0.1-0.7-0.4-0.9c-0.3-0.3-0.6-0.4-1-0.4 H196.6z M211.2,515.7c-0.4,0-0.7,0.1-1,0.4c-0.3,0.3-0.4,0.6-0.4,1v6.8c0,0.4,0.1,0.7,0.4,0.9c0.3,0.3,0.6,0.4,1,0.4h10.6 c0.4,0,0.7-0.1,1-0.4c0.3-0.3,0.4-0.6,0.4-0.9v-6.8c0-0.4-0.1-0.7-0.4-1c-0.3-0.3-0.6-0.4-1-0.4H211.2z M211.2,526.5 c-0.4,0-0.7,0.1-1,0.4c-0.3,0.3-0.4,0.6-0.4,1v6.7c0,0.4,0.1,0.7,0.4,1c0.3,0.3,0.6,0.4,1,0.4h10.6c0.4,0,0.7-0.1,1-0.4 c0.3-0.3,0.4-0.6,0.4-1v-6.7c0-0.4-0.1-0.7-0.4-1c-0.3-0.3-0.6-0.4-1-0.4H211.2z M211.2,537.3c-0.4,0-0.7,0.1-1,0.4 c-0.3,0.3-0.4,0.6-0.4,0.9v6.8c0,0.4,0.1,0.7,0.4,1c0.3,0.3,0.6,0.4,1,0.4h10.6c0.4,0,0.7-0.1,1-0.4c0.3-0.3,0.4-0.6,0.4-1v-6.8 c0-0.4-0.1-0.7-0.4-0.9c-0.3-0.3-0.6-0.4-1-0.4H211.2z M225.9,494.1c-0.4,0-0.7,0.1-1,0.4c-0.3,0.3-0.4,0.6-0.4,1v6.8 c0,0.4,0.1,0.7,0.4,1c0.3,0.3,0.6,0.4,1,0.4h10.6c0.4,0,0.7-0.1,1-0.4c0.3-0.3,0.4-0.6,0.4-1v-6.8c0-0.4-0.1-0.7-0.4-1 c-0.3-0.3-0.6-0.4-1-0.4H225.9z M225.9,504.9c-0.4,0-0.7,0.1-1,0.4c-0.3,0.3-0.4,0.6-0.4,1v6.8c0,0.4,0.1,0.7,0.4,1 c0.3,0.3,0.6,0.4,1,0.4h10.6c0.4,0,0.7-0.1,1-0.4c0.3-0.3,0.4-0.6,0.4-1v-6.8c0-0.4-0.1-0.7-0.4-1c-0.3-0.3-0.6-0.4-1-0.4H225.9z M225.9,515.7c-0.4,0-0.7,0.1-1,0.4c-0.3,0.3-0.4,0.6-0.4,1v6.8c0,0.4,0.1,0.7,0.4,0.9c0.3,0.3,0.6,0.4,1,0.4h10.6 c0.4,0,0.7-0.1,1-0.4c0.3-0.3,0.4-0.6,0.4-0.9v-6.8c0-0.4-0.1-0.7-0.4-1c-0.3-0.3-0.6-0.4-1-0.4H225.9z M225.9,526.5 c-0.4,0-0.7,0.1-1,0.4c-0.3,0.3-0.4,0.6-0.4,1v6.7c0,0.4,0.1,0.7,0.4,1c0.3,0.3,0.6,0.4,1,0.4h10.6c0.4,0,0.7-0.1,1-0.4 c0.3-0.3,0.4-0.6,0.4-1v-6.7c0-0.4-0.1-0.7-0.4-1c-0.3-0.3-0.6-0.4-1-0.4H225.9z M225.9,537.3c-0.4,0-0.7,0.1-1,0.4 c-0.3,0.3-0.4,0.6-0.4,0.9v6.8c0,0.4,0.1,0.7,0.4,1c0.3,0.3,0.6,0.4,1,0.4h10.6c0.4,0,0.7-0.1,1-0.4c0.3-0.3,0.4-0.6,0.4-1v-6.8 c0-0.4-0.1-0.7-0.4-0.9c-0.3-0.3-0.6-0.4-1-0.4H225.9z M240.4,504.9c-0.4,0-0.7,0.1-0.9,0.4c-0.3,0.3-0.4,0.6-0.4,1v6.8 c0,0.4,0.1,0.7,0.4,1c0.3,0.3,0.6,0.4,0.9,0.4H251c0.4,0,0.7-0.1,1-0.4c0.3-0.3,0.4-0.6,0.4-1v-6.8c0-0.4-0.1-0.7-0.4-1 c-0.3-0.3-0.6-0.4-1-0.4H240.4z M240.4,515.7c-0.4,0-0.7,0.1-0.9,0.4c-0.3,0.3-0.4,0.6-0.4,1v6.8c0,0.4,0.1,0.7,0.4,0.9 c0.3,0.3,0.6,0.4,0.9,0.4H251c0.4,0,0.7-0.1,1-0.4c0.3-0.3,0.4-0.6,0.4-0.9v-6.8c0-0.4-0.1-0.7-0.4-1c-0.3-0.3-0.6-0.4-1-0.4H240.4 z M240.4,526.5c-0.4,0-0.7,0.1-0.9,0.4c-0.3,0.3-0.4,0.6-0.4,1v6.7c0,0.4,0.1,0.7,0.4,1c0.3,0.3,0.6,0.4,0.9,0.4H251 c0.4,0,0.7-0.1,1-0.4c0.3-0.3,0.4-0.6,0.4-1v-6.7c0-0.4-0.1-0.7-0.4-1c-0.3-0.3-0.6-0.4-1-0.4H240.4z M240.4,537.3 c-0.4,0-0.7,0.1-0.9,0.4c-0.3,0.3-0.4,0.6-0.4,0.9v6.8c0,0.4,0.1,0.7,0.4,1c0.3,0.3,0.6,0.4,0.9,0.4H251c0.4,0,0.7-0.1,1-0.4 c0.3-0.3,0.4-0.6,0.4-1v-6.8c0-0.4-0.1-0.7-0.4-0.9c-0.3-0.3-0.6-0.4-1-0.4H240.4z M255,526.5c-0.4,0-0.7,0.1-1,0.4 c-0.3,0.3-0.4,0.6-0.4,1v6.7c0,0.4,0.1,0.7,0.4,1c0.3,0.3,0.6,0.4,1,0.4h10.6c0.4,0,0.7-0.1,1-0.4c0.3-0.3,0.4-0.6,0.4-1v-6.7 c0-0.4-0.1-0.7-0.4-1c-0.3-0.3-0.6-0.4-1-0.4H255z M255,537.3c-0.4,0-0.7,0.1-1,0.4c-0.3,0.3-0.4,0.6-0.4,0.9v6.8 c0,0.4,0.1,0.7,0.4,1c0.3,0.3,0.6,0.4,1,0.4h10.6c0.4,0,0.7-0.1,1-0.4c0.3-0.3,0.4-0.6,0.4-1v-6.8c0-0.4-0.1-0.7-0.4-0.9 c-0.3-0.3-0.6-0.4-1-0.4H255z" style="fill: rgb(26, 26, 26);" transform="matrix(0.500587, 0, 0, 0.500587, 95.097015, 89.407639)"/>
</svg>