<?xml version="1.0" encoding="utf-8"?>
<svg viewBox="331.174 247.293 59.019 59.019" xmlns="http://www.w3.org/2000/svg">
  <path class="st0" d="M530.5,315.4c9.9,0,19.5,2.5,28.9,7.6c9.4,5.1,16.7,12.3,22.1,21.8c5.3,9.4,8,19.3,8,29.6 c0,10.2-2.6,19.9-7.8,29.3c-5.2,9.3-12.4,16.6-21.8,21.8s-19.2,7.8-29.4,7.8c-10.1,0-19.9-2.6-29.3-7.8 c-9.4-5.2-16.6-12.4-21.8-21.8c-5.2-9.3-7.8-19.1-7.8-29.3c0-10.3,2.6-20.2,7.9-29.6c5.3-9.4,12.6-16.7,22-21.8 C511,318,520.6,315.4,530.5,315.4z M530.5,319.5c-9.2,0-18.2,2.4-26.9,7.1s-15.5,11.5-20.5,20.3c-4.9,8.8-7.4,18-7.4,27.6 c0,9.5,2.4,18.5,7.2,27.2c4.8,8.7,11.6,15.5,20.3,20.3c8.7,4.8,17.8,7.2,27.2,7.2c9.5,0,18.7-2.4,27.4-7.2 c8.7-4.8,15.5-11.6,20.3-20.3c4.8-8.7,7.2-17.8,7.2-27.2c0-9.6-2.5-18.8-7.5-27.6c-5-8.8-11.8-15.6-20.6-20.3 C548.7,321.8,539.7,319.5,530.5,319.5z M494.8,386.3c0,2.1,0.3,4.1,1,6c0.7,1.9,1.7,3.5,3,5c1.3,1.5,2.8,2.7,4.5,3.7v-29.5 c-1.7,1-3.2,2.2-4.5,3.8c-1.3,1.5-2.3,3.2-3,5.1C495.1,382.3,494.8,384.3,494.8,386.3z M530.5,344.1c-5.9,0-12,1.7-18.2,5.1 c-1.1,0.6-2.1,1.3-3.1,2.2c-1,0.9-1.9,1.9-2.7,3.1c-0.8,1.1-1.5,2.3-2,3.6c-0.5,1.3-0.7,2.6-0.7,4v39h4.7v-39c0-1,0.2-1.9,0.7-3 c0.5-1,1.1-2,1.9-2.9c0.8-0.9,1.7-1.8,2.7-2.5c1-0.8,2-1.3,3-1.7c3.4-1.4,6.6-2.4,9.5-2.9c2.9-0.5,5.8-0.5,8.6,0 c2.9,0.5,6,1.4,9.4,2.9c1,0.4,2,1,3,1.7c1,0.8,1.9,1.6,2.7,2.5c0.8,0.9,1.5,1.9,2,2.9c0.5,1,0.7,2,0.7,3v39h4.7v-39 c0-1.4-0.2-2.7-0.7-4c-0.5-1.3-1.1-2.5-2-3.6c-0.8-1.1-1.8-2.2-2.8-3.1c-1-0.9-2.1-1.6-3.1-2.2 C542.5,345.8,536.4,344.1,530.5,344.1z M513.3,369.1h-2.7c-0.5,0-0.9,0.2-1.3,0.5c-0.3,0.4-0.5,0.8-0.5,1.3v30.9 c0,0.5,0.2,1,0.5,1.3c0.3,0.4,0.8,0.5,1.3,0.5h2.7c0.5,0,0.9-0.2,1.3-0.5s0.5-0.8,0.5-1.3v-30.9c0-0.5-0.2-0.9-0.5-1.3 S513.7,369.1,513.3,369.1z M550.4,369.1h-2.6c-0.5,0-1,0.2-1.3,0.5c-0.4,0.4-0.5,0.8-0.5,1.3v30.9c0,0.5,0.2,1,0.5,1.3 c0.4,0.4,0.8,0.5,1.3,0.5h2.6c0.5,0,1-0.2,1.3-0.5s0.5-0.8,0.5-1.3v-30.9c0-0.5-0.2-0.9-0.5-1.3S550.9,369.1,550.4,369.1z M557.8,371.5v29.5c1.7-1,3.2-2.2,4.5-3.7c1.3-1.5,2.3-3.2,3-5c0.7-1.9,1.1-3.9,1.1-6c0-2.1-0.4-4.1-1.1-6c-0.7-1.9-1.7-3.6-3-5.1 C561,373.8,559.5,372.5,557.8,371.5z" style="fill: rgb(26, 26, 26);" transform="matrix(0.500587, 0, 0, 0.500587, 95.097015, 89.407639)"/>
</svg>