<?xml version="1.0" encoding="utf-8"?>
<svg viewBox="256.236 247.293 59.019 59.019" xmlns="http://www.w3.org/2000/svg">
  <path class="st0" d="M380.8,315.4c9.9,0,19.5,2.5,28.9,7.6c9.4,5.1,16.7,12.3,22.1,21.8c5.3,9.4,8,19.3,8,29.6 c0,10.2-2.6,19.9-7.8,29.3c-5.2,9.3-12.4,16.6-21.8,21.8c-9.4,5.2-19.2,7.8-29.4,7.8c-10.1,0-19.9-2.6-29.3-7.8 c-9.4-5.2-16.6-12.4-21.8-21.8c-5.2-9.3-7.8-19.1-7.8-29.3c0-10.3,2.6-20.2,7.9-29.6c5.3-9.4,12.6-16.7,22-21.8 C361.2,318,370.9,315.4,380.8,315.4z M380.8,319.5c-9.2,0-18.2,2.4-26.9,7.1c-8.7,4.7-15.5,11.5-20.5,20.3 c-4.9,8.8-7.4,18-7.4,27.6c0,9.5,2.4,18.5,7.2,27.2c4.8,8.7,11.6,15.5,20.3,20.3c8.7,4.8,17.8,7.2,27.2,7.2 c9.5,0,18.7-2.4,27.4-7.2c8.7-4.8,15.5-11.6,20.3-20.3c4.8-8.7,7.2-17.8,7.2-27.2c0-9.6-2.5-18.8-7.5-27.6 c-5-8.8-11.8-15.6-20.6-20.3C399,321.8,390,319.5,380.8,319.5z M396.6,407.8c0-1.2-1.6-2.2-4.7-3.1c-2.7-0.8-5.9-1.2-9.5-1.3v-9.2 c2.8-0.2,5.4-1,7.8-2.4c2.7-1.7,4.9-3.9,6.6-6.6c1.6-2.7,2.4-5.8,2.4-9.1v-18.2h-3v17.8c0,2.8-0.7,5.3-2.1,7.6 c-1.4,2.3-3.2,4.1-5.5,5.5c-2.3,1.4-4.8,2.1-7.7,2.1c-2.8,0-5.3-0.7-7.6-2.1c-2.3-1.4-4.1-3.2-5.5-5.5c-1.4-2.3-2-4.8-2-7.6v-17.8 h-3V376c0,3.3,0.8,6.4,2.4,9.1c1.6,2.7,3.8,5,6.6,6.6c2.1,1.2,4.3,2,6.7,2.3v9.3c-3.7,0.1-6.9,0.6-9.6,1.3 c-3.1,0.9-4.7,1.9-4.7,3.1c0,0.2,0,0.5,0.1,0.7c-0.1,0.2-0.1,0.5-0.1,0.7c0,1.2,1.6,2.3,4.7,3.1c3.2,0.9,7,1.3,11.5,1.3 c4.5,0,8.3-0.4,11.4-1.3c3.2-0.9,4.7-1.9,4.7-3.1c0-0.2,0-0.4-0.1-0.7C396.6,408.3,396.6,408.1,396.6,407.8z M381,388.7 c2.5,0,4.7-0.6,6.7-1.8s3.6-2.8,4.8-4.8s1.8-4.3,1.8-6.7v-26.8c0-2.5-0.6-4.7-1.8-6.7c-1.2-2-2.8-3.6-4.8-4.9 c-2-1.2-4.3-1.8-6.7-1.8c-2.5,0-4.7,0.6-6.7,1.8c-2,1.2-3.6,2.9-4.8,4.9c-1.2,2-1.8,4.2-1.8,6.7v26.8c0,2.5,0.6,4.7,1.8,6.7 c1.2,2,2.8,3.6,4.8,4.8C376.3,388.1,378.5,388.7,381,388.7z" style="fill: rgb(26, 26, 26);" transform="matrix(0.500587, 0, 0, 0.500587, 95.097015, 89.407639)"/>
</svg>