<?xml version="1.0" encoding="utf-8"?>
<svg viewBox="106.31 100.521 59.019 59.019" xmlns="http://www.w3.org/2000/svg">
  <path class="st0" d="M81.3,22.2c9.9,0,19.5,2.5,28.9,7.6c9.4,5.1,16.7,12.3,22.1,21.8c5.3,9.4,8,19.3,8,29.6 c0,10.2-2.6,19.9-7.8,29.3c-5.2,9.3-12.4,16.6-21.8,21.8c-9.4,5.2-19.2,7.8-29.4,7.8c-10.1,0-19.9-2.6-29.3-7.8 c-9.4-5.2-16.6-12.4-21.8-21.8c-5.2-9.3-7.8-19.1-7.8-29.3c0-10.3,2.6-20.2,7.9-29.6c5.3-9.4,12.6-16.7,22-21.8 S71.4,22.2,81.3,22.2z M81.3,26.3c-9.2,0-18.2,2.4-26.9,7.1S38.9,44.8,34,53.6c-4.9,8.8-7.4,18-7.4,27.6c0,9.5,2.4,18.5,7.2,27.2 c4.8,8.7,11.6,15.5,20.3,20.3c8.7,4.8,17.8,7.2,27.2,7.2c9.5,0,18.7-2.4,27.4-7.2c8.7-4.8,15.5-11.6,20.3-20.3 c4.8-8.7,7.2-17.8,7.2-27.2c0-9.6-2.5-18.8-7.5-27.6c-5-8.8-11.8-15.6-20.6-20.3C99.5,28.6,90.5,26.3,81.3,26.3z M72.9,71.8 l33.9-6.8v29.6c-3.1-1.4-6.7-1.2-10.8,0.7c-2.9,1.6-4.7,3.5-5.6,5.8c-0.9,2.2-0.7,4.3,0.4,6.1c1.2,1.8,3.1,2.9,5.7,3.4 c2.6,0.5,5.4,0,8.4-1.5c4.1-2.4,6.2-5.3,6.2-8.5V64.2V51.4v-4.2l-42.4,8.5v16.9v26.3c-3.1-1.4-6.8-1.2-10.9,0.7 c-2.9,1.6-4.7,3.5-5.6,5.7c-0.9,2.2-0.7,4.3,0.4,6.1c1.2,1.8,3,2.9,5.7,3.4c2.6,0.5,5.4,0,8.4-1.5c4.1-2.4,6.2-5.2,6.1-8.5V71.8z" style="fill: rgb(26, 26, 26);" transform="matrix(0.500587, 0, 0, 0.500587, 95.097015, 89.407639)"/>
</svg>