<?xml version="1.0" encoding="utf-8"?>
<svg viewBox="256.186 100.521 59.019 59.019" xmlns="http://www.w3.org/2000/svg">
  <path class="st0" d="M380.7,22.2c9.9,0,19.5,2.5,28.9,7.6c9.4,5.1,16.7,12.3,22.1,21.8c5.3,9.4,8,19.3,8,29.6 c0,10.2-2.6,19.9-7.8,29.3c-5.2,9.3-12.4,16.6-21.8,21.8c-9.4,5.2-19.2,7.8-29.4,7.8c-10.1,0-19.9-2.6-29.3-7.8 c-9.4-5.2-16.6-12.4-21.8-21.8c-5.2-9.3-7.8-19.1-7.8-29.3c0-10.3,2.6-20.2,7.9-29.6c5.3-9.4,12.6-16.7,22-21.8 C361.1,24.7,370.8,22.2,380.7,22.2z M380.7,26.3c-9.2,0-18.2,2.4-26.9,7.1s-15.5,11.5-20.5,20.3c-4.9,8.8-7.4,18-7.4,27.6 c0,9.5,2.4,18.5,7.2,27.2c4.8,8.7,11.6,15.5,20.3,20.3c8.7,4.8,17.8,7.2,27.2,7.2c9.5,0,18.7-2.4,27.4-7.2 c8.7-4.8,15.5-11.6,20.3-20.3c4.8-8.7,7.2-17.8,7.2-27.2c0-9.6-2.5-18.8-7.5-27.6c-5-8.8-11.8-15.6-20.6-20.3 C398.9,28.6,389.9,26.3,380.7,26.3z M375.2,47h-23v67.3h23V47z M409.2,47h-23v67.3h23V47z" style="fill: rgb(26, 26, 26);" transform="matrix(0.500587, 0, 0, 0.500587, 95.097015, 89.407639)"/>
</svg>