<?xml version="1.0" encoding="utf-8"?>
<svg viewBox="256.236 320.679 59.019 59.019" xmlns="http://www.w3.org/2000/svg">
  <path class="st0" d="M380.8,462c9.9,0,19.5,2.5,28.9,7.6c9.4,5.1,16.7,12.3,22.1,21.8c5.3,9.4,8,19.3,8,29.6 c0,10.2-2.6,19.9-7.8,29.3c-5.2,9.3-12.4,16.6-21.8,21.8c-9.4,5.2-19.2,7.8-29.4,7.8c-10.1,0-19.9-2.6-29.3-7.8 c-9.4-5.2-16.6-12.4-21.8-21.8c-5.2-9.3-7.8-19.1-7.8-29.3c0-10.3,2.6-20.2,7.9-29.6c5.3-9.4,12.6-16.7,22-21.8 C361.2,464.6,370.9,462,380.8,462z M380.8,466.1c-9.2,0-18.2,2.4-26.9,7.1c-8.7,4.7-15.5,11.5-20.5,20.3c-4.9,8.8-7.4,18-7.4,27.6 c0,9.5,2.4,18.5,7.2,27.2c4.8,8.7,11.6,15.5,20.3,20.3c8.7,4.8,17.8,7.2,27.2,7.2c9.5,0,18.7-2.4,27.4-7.2 c8.7-4.8,15.5-11.6,20.3-20.3c4.8-8.7,7.2-17.8,7.2-27.2c0-9.6-2.5-18.8-7.5-27.6c-5-8.8-11.8-15.6-20.6-20.3 C399,468.4,390,466.1,380.8,466.1z M357.7,495c-1.8,0.1-3.2,0.8-4.3,2.1c-5.6,7.2-8.4,14.8-8.4,23c0,8.2,2.8,15.8,8.4,23 c6.7,7.6,14.8,11.8,24.3,12.6c9.5,0.8,18.2-1.9,26.1-8.2c7.6-6.7,11.8-14.8,12.6-24.3c0.8-9.5-1.9-18.2-8.2-26.1 c-1.4-1.7-3.2-2.5-5.5-2.2c-2.2,0.4-3.7,1.7-4.5,3.8c-0.7,2.1-0.3,4.1,1.2,5.7c4.3,5.4,6.2,11.4,5.7,17.8 c-0.6,6.4-3.4,11.9-8.6,16.6c-5.4,4.3-11.3,6.2-17.8,5.6c-6.4-0.6-12-3.4-16.5-8.6c-7.8-10.5-7.8-20.9,0-31.3 c1.5-1.9,1.7-4,0.8-6.1C361.9,496.1,360.2,495,357.7,495z M380.7,485.3c-1.6,0-2.9,0.6-4,1.7c-1.1,1.2-1.7,2.5-1.7,4.1v36.7 c0.1,2.2,1,3.9,2.9,5c1.9,1,3.8,1,5.8,0c1.8-1.2,2.8-2.8,2.8-5v-36.7c0-1.6-0.5-3-1.6-4.1C383.7,485.8,382.3,485.3,380.7,485.3z" style="fill: rgb(26, 26, 26);" transform="matrix(0.500587, 0, 0, 0.500587, 95.097015, 89.407639)"/>
</svg>