<?xml version="1.0" encoding="utf-8"?>
<svg viewBox="331.174 320.679 59.019 59.019" xmlns="http://www.w3.org/2000/svg">
  <path class="st0" d="M530.5,462c9.9,0,19.5,2.5,28.9,7.6c9.4,5.1,16.7,12.3,22.1,21.8c5.3,9.4,8,19.3,8,29.6 c0,10.2-2.6,19.9-7.8,29.3c-5.2,9.3-12.4,16.6-21.8,21.8c-9.4,5.2-19.2,7.8-29.4,7.8c-10.1,0-19.9-2.6-29.3-7.8 c-9.4-5.2-16.6-12.4-21.8-21.8c-5.2-9.3-7.8-19.1-7.8-29.3c0-10.3,2.6-20.2,7.9-29.6c5.3-9.4,12.6-16.7,22-21.8 C511,464.6,520.6,462,530.5,462z M530.5,466.1c-9.2,0-18.2,2.4-26.9,7.1c-8.7,4.7-15.5,11.5-20.5,20.3c-4.9,8.8-7.4,18-7.4,27.6 c0,9.5,2.4,18.5,7.2,27.2c4.8,8.7,11.6,15.5,20.3,20.3c8.7,4.8,17.8,7.2,27.2,7.2c9.5,0,18.7-2.4,27.4-7.2 c8.7-4.8,15.5-11.6,20.3-20.3c4.8-8.7,7.2-17.8,7.2-27.2c0-9.6-2.5-18.8-7.5-27.6c-5-8.8-11.8-15.6-20.6-20.3 C548.7,468.4,539.7,466.1,530.5,466.1z M527.9,484.1l-0.4,0.4v60.7c-3-2.1-6.1-3.2-9.4-3.2H517c-7.2,0.8-10.7,3.3-10.7,7.6 c0,5.5,4.1,8.2,12.2,8.2h2.9c7.6-1.5,11.3-4.7,11.3-9.7v-52.3c0.8,0.8,2.8,1.9,5.9,3.3c7.7,2.3,11.5,4.6,11.5,6.9 c0,2.8-1,5-3.1,6.5l1.6,1.6h0.2c4.1-3.1,6.1-7.1,6.1-11.9c0-4.5-4-7.9-12.1-10.3c-5.8-2-9.2-3.9-10.1-5.7v-1.9l-0.4-0.4H527.9z" style="fill: rgb(26, 26, 26);" transform="matrix(0.500587, 0, 0, 0.500587, 95.097015, 89.407639)"/>
</svg>