<?xml version="1.0" encoding="utf-8"?>
<svg viewBox="106.31 320.679 59.019 59.019" xmlns="http://www.w3.org/2000/svg">
  <path class="st0" d="M81.3,462c9.9,0,19.5,2.5,28.9,7.6c9.4,5.1,16.7,12.3,22.1,21.8c5.3,9.4,8,19.3,8,29.6 c0,10.2-2.6,19.9-7.8,29.3c-5.2,9.3-12.4,16.6-21.8,21.8c-9.4,5.2-19.2,7.8-29.4,7.8c-10.1,0-19.9-2.6-29.3-7.8 c-9.4-5.2-16.6-12.4-21.8-21.8c-5.2-9.3-7.8-19.1-7.8-29.3c0-10.3,2.6-20.2,7.9-29.6c5.3-9.4,12.6-16.7,22-21.8 C61.8,464.6,71.4,462,81.3,462z M81.3,466.1c-9.2,0-18.2,2.4-26.9,7.1c-8.7,4.7-15.5,11.5-20.5,20.3c-4.9,8.8-7.4,18-7.4,27.6 c0,9.5,2.4,18.5,7.2,27.2c4.8,8.7,11.6,15.5,20.3,20.3c8.7,4.8,17.8,7.2,27.2,7.2c9.5,0,18.7-2.4,27.4-7.2 c8.7-4.8,15.5-11.6,20.3-20.3c4.8-8.7,7.2-17.8,7.2-27.2c0-9.6-2.5-18.8-7.5-27.6c-5-8.8-11.8-15.6-20.6-20.3 C99.5,468.4,90.5,466.1,81.3,466.1z M91.8,483.5l-22.8,23l-23.4,0.1l0.2,28.2l22.7,0.2L91.8,558L91.8,483.5z M95.3,510.2 c1.8,0.6,3.3,1.8,4.4,3.6c1.1,1.8,1.7,4,1.8,6.6c0,2.5-0.5,4.8-1.5,6.7c-1,1.9-2.4,3.3-4.2,4.1l0.8,4.2c2.8-1,5-2.9,6.7-5.6 c1.6-2.7,2.5-5.9,2.4-9.5c-0.2-3.6-1.1-6.7-2.9-9.3c-1.8-2.6-4.1-4.3-6.9-5L95.3,510.2z M96.9,498c4.7,1,8.5,3.5,11.4,7.5 c2.9,4,4.5,8.7,4.7,14.2c0,5.5-1.4,10.3-4.2,14.4c-2.8,4.1-6.5,6.8-11.1,8l0.7,4.1c5.6-1.4,10.2-4.6,13.6-9.5 c3.4-4.9,5.1-10.6,5.1-17.1c-0.2-6.6-2.2-12.2-5.8-16.9c-3.6-4.7-8.2-7.6-13.9-8.8L96.9,498z" style="fill: rgb(26, 26, 26);" transform="matrix(0.500587, 0, 0, 0.500587, 95.097015, 89.407639)"/>
</svg>